<svg xmlns="http://www.w3.org/2000/svg" xmlns:xlink="http://www.w3.org/1999/xlink" width="500" zoomAndPan="magnify" viewBox="0 0 375 374.999991" height="500" preserveAspectRatio="xMidYMid meet" version="1.2"><defs><clipPath id="63844b7d4b"><rect x="0" width="304" y="0" height="375"/></clipPath></defs><g id="e48081decc"><g transform="matrix(1,0,0,1,33,0)"><g clip-path="url(#63844b7d4b)"><g style="fill:#f1efe7;fill-opacity:1;"><g transform="translate(1.0427, 133.752913)"><path style="stroke:none" d="M 34.15625 0 C 28.695312 0 23.941406 -1.269531 19.890625 -3.8125 C 15.847656 -6.351562 12.722656 -9.710938 10.515625 -13.890625 C 8.304688 -18.078125 7.203125 -22.523438 7.203125 -27.234375 C 7.203125 -31.941406 8.398438 -36.382812 10.796875 -40.5625 C 13.191406 -44.75 16.695312 -47.925781 21.3125 -50.09375 C 16.695312 -52.445312 13.285156 -55.570312 11.078125 -59.46875 C 8.867188 -63.375 7.765625 -67.492188 7.765625 -71.828125 C 7.765625 -76.804688 8.9375 -81.316406 11.28125 -85.359375 C 13.632812 -89.410156 16.785156 -92.632812 20.734375 -95.03125 C 24.691406 -97.4375 29.113281 -98.640625 34 -98.640625 L 72.25 -98.640625 L 72.25 -89.609375 L 35.140625 -89.609375 C 31.847656 -89.609375 28.90625 -88.832031 26.3125 -87.28125 C 23.726562 -85.726562 21.679688 -83.585938 20.171875 -80.859375 C 18.671875 -78.128906 17.921875 -75.117188 17.921875 -71.828125 C 17.921875 -68.816406 18.71875 -65.992188 20.3125 -63.359375 C 21.914062 -60.722656 24.035156 -58.628906 26.671875 -57.078125 C 29.304688 -55.523438 32.316406 -54.75 35.703125 -54.75 L 67.03125 -54.75 L 67.03125 -45.71875 L 36.546875 -45.71875 C 32.503906 -45.71875 29.046875 -44.820312 26.171875 -43.03125 C 23.304688 -41.25 21.144531 -38.945312 19.6875 -36.125 C 18.226562 -33.300781 17.5 -30.289062 17.5 -27.09375 C 17.5 -23.988281 18.203125 -21.070312 19.609375 -18.34375 C 21.023438 -15.613281 23.097656 -13.378906 25.828125 -11.640625 C 28.554688 -9.898438 31.847656 -9.03125 35.703125 -9.03125 L 72.25 -9.03125 L 72.25 0 Z M 34.15625 0 "/></g></g><g style="fill:#f1efe7;fill-opacity:1;"><g transform="translate(67.221164, 133.752913)"><path style="stroke:none" d="M 8.328125 0 L 40.078125 -46.984375 C 34.898438 -47.929688 30.125 -49.882812 25.75 -52.84375 C 21.375 -55.8125 17.894531 -59.71875 15.3125 -64.5625 C 12.726562 -69.40625 11.4375 -75.070312 11.4375 -81.5625 L 11.4375 -98.78125 L 21.734375 -98.78125 L 21.734375 -80.015625 C 21.734375 -75.773438 22.789062 -71.796875 24.90625 -68.078125 C 27.019531 -64.367188 29.910156 -61.335938 33.578125 -58.984375 C 37.253906 -56.628906 41.488281 -55.359375 46.28125 -55.171875 L 75.5 -98.78125 L 87.203125 -98.78125 L 57.15625 -54.46875 C 63.832031 -53.8125 69.425781 -51.953125 73.9375 -48.890625 C 78.457031 -45.835938 81.84375 -41.9375 84.09375 -37.1875 C 86.351562 -32.4375 87.484375 -27.144531 87.484375 -21.3125 L 87.484375 0 L 77.328125 0 L 77.328125 -22.15625 C 77.328125 -29.019531 75.019531 -34.6875 70.40625 -39.15625 C 65.800781 -43.625 59.3125 -45.90625 50.9375 -46 L 20.03125 0 Z M 8.328125 0 "/></g></g><g style="fill:#f1efe7;fill-opacity:1;"><g transform="translate(149.626779, 133.752913)"><path style="stroke:none" d="M 7.34375 0 L 7.34375 -9.03125 L 26.953125 -9.03125 L 26.953125 -89.75 L 7.34375 -89.75 L 7.34375 -98.78125 L 56.71875 -98.78125 L 56.71875 -89.75 L 37.109375 -89.75 L 37.109375 -9.03125 L 56.71875 -9.03125 L 56.71875 0 Z M 7.34375 0 "/></g></g><g style="fill:#f1efe7;fill-opacity:1;"><g transform="translate(201.130259, 133.752913)"><path style="stroke:none" d="M 59.546875 0 C 54.554688 0 50.226562 -1.054688 46.5625 -3.171875 C 42.894531 -5.285156 40.070312 -8.222656 38.09375 -11.984375 C 36.125 -15.753906 35.140625 -20.035156 35.140625 -24.828125 L 35.140625 -89.75 L 3.8125 -89.75 L 3.8125 -98.78125 L 76.625 -98.78125 L 76.625 -89.75 L 45.296875 -89.75 L 45.296875 -23.421875 C 45.296875 -19.285156 46.585938 -15.851562 49.171875 -13.125 C 51.765625 -10.394531 55.269531 -9.03125 59.6875 -9.03125 L 65.890625 -9.03125 L 65.890625 0 Z M 59.546875 0 "/></g></g><g style="fill:#f1efe7;fill-opacity:1;"><g transform="translate(1.0427, 236.646143)"><path style="stroke:none" d="M 94.6875 30.484375 C 90.925781 30.484375 87.492188 29.679688 84.390625 28.078125 C 81.285156 26.484375 78.8125 24.203125 76.96875 21.234375 C 75.132812 18.273438 74.21875 14.816406 74.21875 10.859375 C 74.21875 6.910156 75.253906 3.453125 77.328125 0.484375 C 79.398438 -2.472656 82.082031 -4.820312 85.375 -6.5625 C 88.664062 -8.300781 92.144531 -9.359375 95.8125 -9.734375 C 95.4375 -10.015625 94.660156 -10.695312 93.484375 -11.78125 C 92.304688 -12.863281 90.304688 -14.535156 87.484375 -16.796875 L 78.734375 -23.984375 C 75.722656 -18.335938 72.3125 -13.585938 68.5 -9.734375 C 64.695312 -5.878906 60.441406 -2.988281 55.734375 -1.0625 C 51.035156 0.863281 45.675781 1.828125 39.65625 1.828125 C 32.875 1.828125 26.875 0.441406 21.65625 -2.328125 C 16.4375 -5.097656 12.390625 -8.953125 9.515625 -13.890625 C 6.648438 -18.835938 5.21875 -24.460938 5.21875 -30.765625 C 5.21875 -35.179688 6.085938 -39.484375 7.828125 -43.671875 C 9.566406 -47.859375 12.269531 -51.738281 15.9375 -55.3125 C 19.613281 -58.882812 24.273438 -61.847656 29.921875 -64.203125 C 28.316406 -65.523438 26.738281 -67.054688 25.1875 -68.796875 C 23.632812 -70.535156 22.316406 -72.484375 21.234375 -74.640625 C 20.148438 -76.804688 19.609375 -79.066406 19.609375 -81.421875 C 19.609375 -84.898438 20.476562 -88.070312 22.21875 -90.9375 C 23.957031 -93.8125 26.40625 -96.140625 29.5625 -97.921875 C 32.71875 -99.710938 36.363281 -100.609375 40.5 -100.609375 C 44.445312 -100.609375 47.945312 -99.804688 51 -98.203125 C 54.0625 -96.609375 56.4375 -94.398438 58.125 -91.578125 C 59.820312 -88.753906 60.671875 -85.507812 60.671875 -81.84375 C 60.671875 -77.613281 59.304688 -73.875 56.578125 -70.625 C 53.859375 -67.375 50.003906 -64.671875 45.015625 -62.515625 L 75.5 -37.671875 L 76.203125 -39.375 C 78.742188 -45.019531 81.046875 -49.628906 83.109375 -53.203125 C 85.179688 -56.773438 87.15625 -59.5 89.03125 -61.375 C 90.914062 -63.257812 93.007812 -64.554688 95.3125 -65.265625 C 97.625 -65.972656 100.332031 -66.328125 103.4375 -66.328125 L 109.21875 -66.328125 L 109.21875 -58.28125 L 104 -58.28125 C 101.738281 -58.28125 99.785156 -57.972656 98.140625 -57.359375 C 96.492188 -56.742188 94.960938 -55.566406 93.546875 -53.828125 C 92.140625 -52.085938 90.613281 -49.617188 88.96875 -46.421875 C 87.320312 -43.222656 85.367188 -38.988281 83.109375 -33.71875 L 82.40625 -32.03125 L 92.421875 -23.84375 C 98.441406 -19.238281 103.171875 -15.078125 106.609375 -11.359375 C 110.046875 -7.640625 112.46875 -4.132812 113.875 -0.84375 C 115.28125 2.445312 115.984375 5.785156 115.984375 9.171875 C 115.984375 13.117188 115.113281 16.691406 113.375 19.890625 C 111.632812 23.085938 109.164062 25.648438 105.96875 27.578125 C 102.769531 29.515625 99.007812 30.484375 94.6875 30.484375 Z M 40.5 -7.0625 C 45.101562 -7.0625 49.238281 -7.835938 52.90625 -9.390625 C 56.582031 -10.941406 59.945312 -13.382812 63 -16.71875 C 66.0625 -20.0625 69.003906 -24.367188 71.828125 -29.640625 L 36.40625 -58.703125 C 31.507812 -56.722656 27.484375 -54.296875 24.328125 -51.421875 C 21.179688 -48.554688 18.851562 -45.40625 17.34375 -41.96875 C 15.84375 -38.539062 15.09375 -35.039062 15.09375 -31.46875 C 15.09375 -26.945312 16.148438 -22.851562 18.265625 -19.1875 C 20.390625 -15.519531 23.378906 -12.582031 27.234375 -10.375 C 31.085938 -8.164062 35.507812 -7.0625 40.5 -7.0625 Z M 94.96875 22.578125 C 98.445312 22.578125 101.316406 21.375 103.578125 18.96875 C 105.835938 16.570312 106.96875 13.351562 106.96875 9.3125 C 106.96875 7.238281 106.585938 5.144531 105.828125 3.03125 C 105.078125 0.914062 103.664062 -1.128906 101.59375 -3.109375 C 98.207031 -2.921875 95.125 -2.257812 92.34375 -1.125 C 89.570312 0 87.363281 1.59375 85.71875 3.65625 C 84.070312 5.726562 83.25 8.320312 83.25 11.4375 C 83.25 14.539062 84.332031 17.171875 86.5 19.328125 C 88.664062 21.492188 91.488281 22.578125 94.96875 22.578125 Z M 38.65625 -67.734375 C 40.914062 -68.765625 43.035156 -69.960938 45.015625 -71.328125 C 46.992188 -72.691406 48.59375 -74.242188 49.8125 -75.984375 C 51.03125 -77.722656 51.640625 -79.628906 51.640625 -81.703125 C 51.640625 -84.710938 50.628906 -87.273438 48.609375 -89.390625 C 46.585938 -91.503906 43.695312 -92.5625 39.9375 -92.5625 C 37.488281 -92.5625 35.441406 -92.019531 33.796875 -90.9375 C 32.148438 -89.863281 30.878906 -88.503906 29.984375 -86.859375 C 29.085938 -85.210938 28.640625 -83.492188 28.640625 -81.703125 C 28.640625 -79.628906 29.179688 -77.769531 30.265625 -76.125 C 31.347656 -74.476562 32.664062 -72.972656 34.21875 -71.609375 C 35.769531 -70.242188 37.25 -68.953125 38.65625 -67.734375 Z M 38.65625 -67.734375 "/></g></g><g style="fill:#f1efe7;fill-opacity:1;"><g transform="translate(1.0427, 339.539373)"><path style="stroke:none" d="M 11.140625 0 L 11.140625 -98.78125 L 54.046875 -98.78125 C 60.066406 -98.78125 65.566406 -97.460938 70.546875 -94.828125 C 75.535156 -92.191406 79.507812 -88.519531 82.46875 -83.8125 C 85.4375 -79.113281 86.921875 -73.660156 86.921875 -67.453125 C 86.921875 -60.773438 85.179688 -54.941406 81.703125 -49.953125 C 78.222656 -44.960938 73.566406 -41.296875 67.734375 -38.953125 L 78.875 -14.8125 C 79.820312 -12.84375 80.859375 -11.410156 81.984375 -10.515625 C 83.109375 -9.617188 84.660156 -9.171875 86.640625 -9.171875 L 92.5625 -9.171875 L 92.5625 0 L 85.234375 0 C 81.660156 0 78.601562 -0.890625 76.0625 -2.671875 C 73.519531 -4.460938 71.398438 -7.003906 69.703125 -10.296875 L 57.578125 -36.546875 C 56.441406 -36.453125 55.285156 -36.359375 54.109375 -36.265625 C 52.941406 -36.171875 51.789062 -36.125 50.65625 -36.125 L 21.3125 -36.125 L 21.3125 0 Z M 21.3125 -45.15625 L 52.359375 -45.15625 C 56.867188 -45.15625 60.957031 -46.023438 64.625 -47.765625 C 68.289062 -49.503906 71.226562 -52.039062 73.4375 -55.375 C 75.65625 -58.71875 76.765625 -62.742188 76.765625 -67.453125 C 76.765625 -72.054688 75.65625 -76.050781 73.4375 -79.4375 C 71.226562 -82.832031 68.3125 -85.398438 64.6875 -87.140625 C 61.070312 -88.878906 57.101562 -89.75 52.78125 -89.75 L 21.3125 -89.75 Z M 21.3125 -45.15625 "/></g></g><g style="fill:#f1efe7;fill-opacity:1;"><g transform="translate(83.73051, 339.539373)"><path style="stroke:none" d="M 34.15625 0 C 28.695312 0 23.941406 -1.269531 19.890625 -3.8125 C 15.847656 -6.351562 12.722656 -9.710938 10.515625 -13.890625 C 8.304688 -18.078125 7.203125 -22.523438 7.203125 -27.234375 C 7.203125 -31.941406 8.398438 -36.382812 10.796875 -40.5625 C 13.191406 -44.75 16.695312 -47.925781 21.3125 -50.09375 C 16.695312 -52.445312 13.285156 -55.570312 11.078125 -59.46875 C 8.867188 -63.375 7.765625 -67.492188 7.765625 -71.828125 C 7.765625 -76.804688 8.9375 -81.316406 11.28125 -85.359375 C 13.632812 -89.410156 16.785156 -92.632812 20.734375 -95.03125 C 24.691406 -97.4375 29.113281 -98.640625 34 -98.640625 L 72.25 -98.640625 L 72.25 -89.609375 L 35.140625 -89.609375 C 31.847656 -89.609375 28.90625 -88.832031 26.3125 -87.28125 C 23.726562 -85.726562 21.679688 -83.585938 20.171875 -80.859375 C 18.671875 -78.128906 17.921875 -75.117188 17.921875 -71.828125 C 17.921875 -68.816406 18.71875 -65.992188 20.3125 -63.359375 C 21.914062 -60.722656 24.035156 -58.628906 26.671875 -57.078125 C 29.304688 -55.523438 32.316406 -54.75 35.703125 -54.75 L 67.03125 -54.75 L 67.03125 -45.71875 L 36.546875 -45.71875 C 32.503906 -45.71875 29.046875 -44.820312 26.171875 -43.03125 C 23.304688 -41.25 21.144531 -38.945312 19.6875 -36.125 C 18.226562 -33.300781 17.5 -30.289062 17.5 -27.09375 C 17.5 -23.988281 18.203125 -21.070312 19.609375 -18.34375 C 21.023438 -15.613281 23.097656 -13.378906 25.828125 -11.640625 C 28.554688 -9.898438 31.847656 -9.03125 35.703125 -9.03125 L 72.25 -9.03125 L 72.25 0 Z M 34.15625 0 "/></g></g><g style="fill:#f1efe7;fill-opacity:1;"><g transform="translate(149.908974, 339.539373)"><path style="stroke:none" d="M 10.4375 0 L 10.4375 -9.03125 L 53.484375 -9.03125 C 57.335938 -9.03125 60.648438 -9.921875 63.421875 -11.703125 C 66.203125 -13.492188 68.296875 -15.820312 69.703125 -18.6875 C 71.117188 -21.5625 71.828125 -24.550781 71.828125 -27.65625 C 71.828125 -30.757812 71.144531 -33.675781 69.78125 -36.40625 C 68.414062 -39.132812 66.390625 -41.34375 63.703125 -43.03125 C 61.023438 -44.726562 57.804688 -45.578125 54.046875 -45.578125 L 34.296875 -45.578125 C 28.648438 -45.578125 23.78125 -46.726562 19.6875 -49.03125 C 15.59375 -51.34375 12.441406 -54.472656 10.234375 -58.421875 C 8.023438 -62.367188 6.921875 -66.789062 6.921875 -71.6875 C 6.921875 -76.570312 8.023438 -81.0625 10.234375 -85.15625 C 12.441406 -89.25 15.59375 -92.539062 19.6875 -95.03125 C 23.78125 -97.53125 28.648438 -98.78125 34.296875 -98.78125 L 75.640625 -98.78125 L 75.640625 -89.75 L 35 -89.75 C 31.320312 -89.75 28.144531 -88.898438 25.46875 -87.203125 C 22.789062 -85.515625 20.722656 -83.328125 19.265625 -80.640625 C 17.804688 -77.960938 17.078125 -75.164062 17.078125 -72.25 C 17.078125 -69.332031 17.757812 -66.554688 19.125 -63.921875 C 20.488281 -61.285156 22.460938 -59.144531 25.046875 -57.5 C 27.628906 -55.851562 30.804688 -55.03125 34.578125 -55.03125 L 54.46875 -55.03125 C 60.394531 -55.03125 65.40625 -53.851562 69.5 -51.5 C 73.59375 -49.15625 76.695312 -45.984375 78.8125 -41.984375 C 80.925781 -37.984375 81.984375 -33.582031 81.984375 -28.78125 C 81.984375 -23.425781 80.878906 -18.5625 78.671875 -14.1875 C 76.460938 -9.8125 73.3125 -6.351562 69.21875 -3.8125 C 65.125 -1.269531 60.207031 0 54.46875 0 Z M 10.4375 0 "/></g></g><g style="fill:#f1efe7;fill-opacity:1;"><g transform="translate(225.964816, 339.539373)"><path style="stroke:none" d="M 59.546875 0 C 54.554688 0 50.226562 -1.054688 46.5625 -3.171875 C 42.894531 -5.285156 40.070312 -8.222656 38.09375 -11.984375 C 36.125 -15.753906 35.140625 -20.035156 35.140625 -24.828125 L 35.140625 -89.75 L 3.8125 -89.75 L 3.8125 -98.78125 L 76.625 -98.78125 L 76.625 -89.75 L 45.296875 -89.75 L 45.296875 -23.421875 C 45.296875 -19.285156 46.585938 -15.851562 49.171875 -13.125 C 51.765625 -10.394531 55.269531 -9.03125 59.6875 -9.03125 L 65.890625 -9.03125 L 65.890625 0 Z M 59.546875 0 "/></g></g></g></g></g></svg>