<svg xmlns="http://www.w3.org/2000/svg" viewBox="0 0 180 180">
  <defs>
    <style>
      @supports (color: oklch(0.5 0.1 200)) {
        .bg {
          fill: oklch(0.55 0.09 240)
        }

        .cloud {
          fill: oklch(0.97 0.01 220)
        }

        .sun {
          fill: oklch(0.85 0.19 95)
        }

        .sun-light {
          fill: oklch(0.95 0.13 95);
        }

        .cloud-bottom {
          fill: oklch(0.97 0.01 220)
        }

        .dot {
          fill: oklch(0.95 0.13 95)
        }
      }

      @supports (fill: linear-gradient(48deg, oklch(0.48 0.09 240 / .48) oklch(0.55 0.09 240)); ) {
        .bg {
          fill: linear-gradient(48deg, oklch(0.48 0.09 240 / .48) oklch(0.55 0.09 240));
        }
      }
    </style>
  </defs>
  <path class="bg" fill="#3a4e6b"
    d="M180 90A90 90 0 0 1 0.35 97.99Q0 93.87 0 90C0 40.29 40.29 0 90 0s90 40.29 90 90Z" />
  <path class="cloud" fill="#e6f6ff"
    d="M120.42 109.24H2.07A89.65 89.65 0 0 1 0.35 97.98c3.87-2.42 8.93-3.87 14.46-3.87a31.09 31.09 0 0 1 3.47 0.2 25.28 25.28 0 0 1-0.3-3.85A24.39 24.39 0 0 1 66.22 85.4a19.42 19.42 0 0 1 25.46 9.38 30.28 30.28 0 0 1 6.68-0.74c0.43 0 0.87 0 1.29 0.03 9.55 0.4 17.46 5.14 19.93 11.5a11.83 11.83 0 0 1 0.79 3.67Z" />
  <path class="sun" fill="#ffcc29"
    d="M149.58 39.02q-0.83-1.48-1.74-2.92a70.01 70.01 0 0 0-15.74-17.58c-0.85-0.7-1.73-1.34-2.63-1.99a68.25 68.25 0 0 0-5.66-3.67 69.22 69.22 0 0 0-9.84-4.73c-0.45-0.18-0.9-0.35-1.35-0.51a63.9 63.9 0 0 1-9.27 83.28q-1.78 1.64-3.68 3.14A64.01 64.01 0 0 1 22.23 95.61a69.1 69.1 0 0 0 3.87 9.25q1.14 2.26 2.43 4.42c0.04 0.08 0.09 0.16 0.13 0.23a69.12 69.12 0 0 0 7.5 10.23 70.43 70.43 0 0 0 5.18 5.27q1.76 1.64 3.66 3.14a69.63 69.63 0 0 0 24.61 12.6q1.52 0.43 3.08 0.79A69.97 69.97 0 0 0 149.58 39.02Z" />
  <path class="sun-light" fill="#ffde55"
    d="M127.69 25.41a72.23 72.23 0 0 0-1.74-2.91 70.02 70.02 0 0 0-11.95-14.33c-0.45-0.18-0.9-0.35-1.36-0.51a63.91 63.91 0 0 1-9.27 83.28 61.29 61.29 0 0 1-3.68 3.14A64.01 64.01 0 0 1 22.24 95.61a69.28 69.28 0 0 0 3.87 9.25q1.13 2.26 2.43 4.42l0.13 0.23a69.33 69.33 0 0 0 7.5 10.23 70.49 70.49 0 0 0 5.18 5.27 70.14 70.14 0 0 0 74.85-15.74q1.78-1.76 3.43-3.67a69.37 69.37 0 0 0 10.98-17.19 69.89 69.89 0 0 0-2.91-63.01Z" />
  <path class="cloud-bottom" fill="#e6f6ff"
    d="M155.03 152.25a90.16 90.16 0 0 1-23.56 17.66h-82.93a90.08 90.08 0 0 1-18.44-12.73c4.77-3.38 11.32-5.48 18.56-5.48A35.74 35.74 0 0 1 56.67 152.63a23.24 23.24 0 0 1 30.48-11.26 29.19 29.19 0 0 1 57.41 10.59 35.76 35.76 0 0 1 4.15-0.24 36.75 36.75 0 0 1 6.31 0.55Z" />
  <circle class="dot" cx="76.67" cy="26.94" r="2.8" fill="#ffde55" />
  <circle class="dot" cx="104.46" cy="55.97" r="2.8" fill="#ffde55" />
  <circle class="dot" cx="162.07" cy="111.01" r="2.8" fill="#ffde55" />
  <circle class="dot" cx="33.01" cy="134.67" r="2.8" fill="#ffde55" />
  <circle class="dot" cx="50.49" cy="51.31" r="2.8" fill="#ffde55" />
</svg>
