<svg xmlns="http://www.w3.org/2000/svg" xmlns:xlink="http://www.w3.org/1999/xlink" viewBox="0 0 283.46 283.46" id="apple">
  <defs>
    <linearGradient id="a" x1="268.46" x2="74.2" y1="63.04" y2="222.29" gradientUnits="userSpaceOnUse">
      <stop offset="0" stop-color="#fff"></stop>
      <stop offset=".22" stop-color="#d9d9d9"></stop>
      <stop offset=".76" stop-color="#828282"></stop>
      <stop offset="1" stop-color="#606060"></stop>
    </linearGradient>
    <linearGradient xlink:href="#a" id="b" x1="196.15" x2="115.79" y1="31.4" y2="88.07"></linearGradient>
  </defs>
  <g>
    <path fill="url(#a)" d="M228.43,104.6s-34.74,22.06-21.81,58.82c0,0,6.34,22.82,29.16,31.69,0,0-15.33,46.28-45.78,59.4-3.27,1.41-6.92,1.68-10.36,.77l-10.81-2.86s-21.3-13.69-46.65,1.27c0,0-14.45,7.23-24.85-.25,0,0-20.37-10.14-36.26-45.47,0,0-21.05-46.86-10.4-79.68,0,0,13.75-51.58,61.14-44.74,0,0,10.37,1.77,24.06,8.87,0,0,7.86,1.52,13.69-.76l16.48-6.59s35.24-14.2,62.37,19.52Z"></path>
    <path fill="url(#b)" d="M185.83,26.63s-45.86,6.98-44.1,52.11c0,0,50.44-2.54,44.1-52.11Z"></path>
  </g>
</svg>
