<svg xmlns="http://www.w3.org/2000/svg" fill="none" viewBox="0 0 25 24" id="bandcamp">
  <rect x=".463" fill="url(#paint0_linear_302_4842)" rx="8"></rect>
  <path fill="#fff" fill-rule="evenodd"
    d="M6.52778 9L4 14.0556H10.1389L12.4861 9.36111V14.0556H13.5695V13.6617C13.8633 13.906 14.2331 14.0556 14.6528 14.0556C15.7157 14.0556 16.4584 13.0962 16.4584 12.0695C16.4584 13.0962 17.201 14.0556 18.2639 14.0556C19.1359 14.0556 19.7923 13.4099 20 12.6111H18.8418C18.6983 12.844 18.4704 12.9722 18.2639 12.9722C17.9308 12.9722 17.5417 12.6383 17.5417 12.0695C17.5417 11.5006 17.9308 11.1667 18.2639 11.1667C18.4704 11.1667 18.6983 11.2949 18.8418 11.5278H20C19.7923 10.729 19.1359 10.0833 18.2639 10.0833C17.201 10.0833 16.4584 11.0427 16.4584 12.0695C16.4584 11.0427 15.7157 10.0833 14.6528 10.0833C14.2331 10.0833 13.8633 10.2329 13.5695 10.4772V9H12.6667H12.4861H6.52778ZM13.9306 12.0695C13.9306 11.5006 14.3196 11.1667 14.6528 11.1667C14.986 11.1667 15.375 11.5006 15.375 12.0695C15.375 12.6383 14.986 12.9722 14.6528 12.9722C14.3196 12.9722 13.9306 12.6383 13.9306 12.0695Z"
    clip-rule="evenodd"></path>
  <defs>
    <linearGradient id="paint0_linear_302_4842" x1=".463" x2="24.463" y1="12" y2="12" gradientUnits="userSpaceOnUse">
      <stop stop-color="#ED6D6B"></stop>
      <stop offset="1" stop-color="#F0B076"></stop>
    </linearGradient>
  </defs>
</svg>
