<svg xmlns="http://www.w3.org/2000/svg" viewBox="0 0 64 64">
  <rect width="56" height="24.57" x="4" y="26.63" fill="#d85264" rx="2.8" ry="2.8" />
  <path fill="#325068" d="M57.2 26.63H44.35V51.2H57.2a2.8 2.8 0 0 0 2.8-2.8V29.43a2.8 2.8 0 0 0-2.8-2.8Z" />
  <path fill="#d3dce5"
    d="M39.29 32.27h-6.38c-.55 0-1 .45-1 1s.45 1 1 1h2.19v9.85c0 .55.45 1 1 1s1-.45 1-1v-9.85h2.19c.55 0 1-.45 1-1s-.45-1-1-1zm-25.1 2c.55 0 1-.45 1-1s-.45-1-1-1H9.8a1 1 0 0 0-1 1v10.85a1 1 0 0 0 1 1h4.39c.55 0 1-.45 1-1s-.45-1-1-1H10.8v-3.43h2.39c.55 0 1-.45 1-1s-.45-1-1-1H10.8v-3.43h3.39zm10.66-1.93a1 1 0 0 0-1.37.35l-2.37 4.01-2.37-4.01a1 1 0 0 0-1.37-.35 1 1 0 0 0-.35 1.37l2.93 4.96-2.93 4.96a1 1 0 0 0 .86 1.51 1 1 0 0 0 .86-.49l2.37-4.01 2.37 4.01a1 1 0 0 0 1.37.35 1 1 0 0 0 .35-1.37l-2.93-4.96 2.93-4.96a1 1 0 0 0-.35-1.37zm4.25-.07a1 1 0 0 0-1 1v10.85c0 .55.45 1 1 1s1-.45 1-1V33.27a1 1 0 0 0-1-1zm19.84 2.8v7.68a.79.79 0 0 0 1.27.63l5.07-3.88a.8.8 0 0 0 0-1.26l-5.07-3.8a.8.8 0 0 0-1.27.63z" />
  <rect width="56" height="5.86" x="4" y="12.8" fill="#d85264" rx="1.74" ry="1.74" />
  <path fill="#d3dce5" d="M11 18.67h5v7.96h-5zm37 0h5v7.96h-5z" />
</svg>
