<svg xmlns="http://www.w3.org/2000/svg" fill-rule="evenodd" stroke-linejoin="round" stroke-miterlimit="2"
  clip-rule="evenodd" viewBox="0 0 64 64">
  <path fill="none" d="M0 0h64v64H0z" />
  <path fill="#eaeaea" d="M40 52V12a2 2 0 0 0-2-2H26a2 2 0 0 0-2 2v40c0 1.1.9 2 2 2h12a2 2 0 0 0 2-2Z" />
  <path fill="#364f6b" d="M34 34h20a2 2 0 0 0 0-4H34a2 2 0 0 0 0 4Z" />
  <path fill="#364f6b"
    d="m51.17 32-3.58-3.59a2 2 0 1 1 2.82-2.82l5 5a2 2 0 0 1 0 2.82l-5 5a2 2 0 1 1-2.82-2.82L51.17 32Z" />
  <path fill="#29aae2"
    d="M9.3 10.13A2 2 0 0 0 8 12v40a2 2 0 0 0 1.3 1.87l16 6A2 2 0 0 0 28 58V6a2 2 0 0 0-2.7-1.87l-16 6Z" />
  <path fill="#364f6b" d="M20 30h-2a2 2 0 0 0 0 4h2a2 2 0 0 0 0-4Z" />
</svg>
