<svg xmlns="http://www.w3.org/2000/svg" xml:space="preserve" viewBox="0 0 512 512">
  <path fill="#191919"
    d="M49.1 430.1H23.4c-.7 0-1.2-.5-1.2-1.2V217.3c0-.7.5-1.2 1.2-1.2h25.7c.7 0 1.2.5 1.2 1.2v211.6c0 .7-.5 1.2-1.2 1.2" />
  <path fill="#e6e6e6" d="M50.3 375.7h419.5v54.4H50.3z" />
  <path fill="#f2f2f3" d="M50.3 323.1h419.5v54.4H50.3z" />
  <path fill="#191919"
    d="M488.6 430.1h-25.7c-.7 0-1.2-.3-1.2-.7V300.6c0-.4.5-.7 1.2-.7h25.7c.7 0 1.2.3 1.2.7v128.8c0 .4-.6.7-1.2.7" />
  <path fill="#29aae2"
    d="M321.3 286.1v13.8h-55.1V289l31-36.8H267v-13.8h52.9v10.9l-31 36.8zm66.3-66.4v13.8h-55.1v-10.9l31-36.8h-30.2V172h53v10.9l-31 36.8zM164.7 323.1h297v88.7h-297z" />
  <circle cx="179.9" cy="151.7" r="69.8" fill="#fbb03a" />
  <circle cx="179.9" cy="151.7" r="59.5" fill="#fff" />
  <path fill="#010101" d="m196.9 170.6-20.7-17.2v-36.6h7.4v33.1l18.1 15z" />
  <path fill="#e6e6e6" d="M104.8 323.1H50.3v-45.9h8.6a45.9 45.9 0 0 1 45.9 45.9" />
</svg>
