<svg xmlns="http://www.w3.org/2000/svg" fill-rule="evenodd" clip-rule="evenodd" image-rendering="optimizeQuality"
  shape-rendering="geometricPrecision" text-rendering="geometricPrecision" viewBox="0 0 1707 1707">
  <path fill="#d77d41"
    d="M1614 1212c-30 0-67 7-67-20v-154c0-27 37-20 67-20 123 0 123 194 0 194zm-27-40c26 0 49 3 66-17 25-30 16-97-39-97h-27v114z" />
  <path fill="#fd5673"
    d="M513 1280C230 1280 0 1050 0 768c0-283 230-513 513-513 282 0 512 230 512 513 0 282-230 512-512 512z" />
  <path fill="#e4eef9"
    d="M513 1175c-225 0-408-183-408-407 0-225 183-408 408-408 224 0 407 183 407 408 0 224-183 407-407 407z" />
  <path fill="#fd5673"
    d="M513 494c-12 0-20-9-20-20V347c0-26 40-26 40 0v127c0 11-9 20-20 20zm420 294H806c-26 0-26-40 0-40h127c27 0 27 40 0 40zm-420 421c-12 0-20-9-20-20v-128c0-26 40-26 40 0v128c0 11-9 20-20 20zM219 788H92c-27 0-26-40 0-40h127c26 0 26 40 0 40z" />
  <path fill="#405b6c" d="M513 728c-12 0-20-9-20-20V583c0-26 40-26 40 0v125c0 11-9 20-20 20z" />
  <path fill="#ffe8c8"
    d="M1322 1451c-133 0-266-88-266-256V958c0-11 9-20 20-20h491c11 0 20 9 20 20v237c0 156-118 256-265 256z" />
  <path fill="#fdd9b4" d="M1056 1041v-83c0-11 9-20 20-20h491c11 0 20 9 20 20v83h-531z" />
  <path fill="#e6485d" d="M513 848c-45 0-80-36-80-80s36-80 80-80 80 36 80 80-36 80-80 80z" />
  <path fill="#dae1ea"
    d="M1173 887c-19 0-28-25-10-37 25-17 36-48 13-84-45-70 6-131 40-154 22-14 44 19 22 34-6 4-63 45-29 98 53 82-16 143-36 143zm121 0c-19 0-28-25-10-37 26-17 36-48 13-84-45-70 6-131 40-154 22-14 44 19 22 34-6 4-63 45-29 98 53 82-16 143-36 143zm122 0c-19 0-29-25-11-37 26-17 37-48 13-84-45-70 7-131 40-154 22-14 44 19 23 34-7 4-64 45-29 98 52 82-17 143-36 143z" />
  <path fill="#d77d41" d="M1593 1451h-543c-27 0-27-40 0-40h543c26 0 26 40 0 40z" />
  <path fill="#e6485d"
    d="M549 1251c-283 0-512-230-512-513 0-152 66-289 172-383C83 448 0 599 0 768c0 282 230 512 513 512 130 0 249-49 339-129-85 63-190 100-303 100z" />
  <path fill="#cddbef"
    d="M140 748c9-198 160-360 353-386v-1c-209 10-377 178-387 387h34zm353 422c-192-26-342-186-353-382h-34c10 209 178 377 387 387v-5z" />
  <path fill="#ba3b4c"
    d="M448 769c0-32 18-59 45-72 9-5 20-8 32-8-4-1-8-1-12-1-7 0-14 1-20 2-35 9-60 41-60 78 0 44 35 80 80 80h3c-39-6-68-39-68-79z" />
  <path fill="#fab684" d="M1587 1041v-83c0-11-9-20-20-20h-38c11 0 20 9 20 20v83h38z" />
  <path fill="#fdd9b4" d="M1587 1195v-154h-38v154c0 98-46 173-116 216h38c70-43 116-118 116-216z" />
</svg>
