<svg xmlns="http://www.w3.org/2000/svg" xmlns:xlink="http://www.w3.org/1999/xlink" viewBox="0 0 283.46 283.46" id="cloud">
  <defs>
    <linearGradient id="b" x1="138.64" x2="133.98" y1="241.4" y2="91.15" gradientUnits="userSpaceOnUse">
      <stop offset="0" stop-color="#ff782a"></stop>
      <stop offset=".28" stop-color="#ff8846"></stop>
      <stop offset=".88" stop-color="#ffb38d"></stop>
      <stop offset=".92" stop-color="#ffb692"></stop>
    </linearGradient>
    <linearGradient id="a" x1="171.75" x2="231.91" y1="70.98" y2="128.58" gradientUnits="userSpaceOnUse">
      <stop offset=".12" stop-color="#ffe5d4"></stop>
      <stop offset=".51" stop-color="#ffd0b7"></stop>
      <stop offset=".74" stop-color="#ffc4a6"></stop>
    </linearGradient>
    <linearGradient xlink:href="#a" id="c" x1="168.57" x2="256.91" y1="85.65" y2="85.65"></linearGradient>
  </defs>
  <path fill="url(#b)" d="M239.87,171.11v-.07c-7.14-10.16-18.47-17.16-31.44-18.47-.01,0-.03,0-.04,0,0-.07,.01-.15,.01-.22,0-34-27.56-61.56-61.56-61.56-28.14,0-51.82,18.91-59.17,44.69h0c-2.81-.48-5.77-.76-8.79-.76-28.9,0-52.32,23.41-52.32,52.32,0,23.07,14.97,42.7,35.7,49.57,5.22,1.79,10.85,2.75,16.61,2.75h125.23c14.83,0,27.87-7.35,35.77-18.67,4.87-7,7.76-15.58,7.76-24.78s-2.88-17.78-7.76-24.79Z"></path>
  <path fill="url(#a)" d="M225.45,131.11c-.91,.96-2.13,1.63-3.54,1.82-3.3,.47-6.36-1.84-6.83-5.14-5.49-38.92-41.96-43.31-43.51-43.47-3.31-.36-5.72-3.33-5.37-6.64,.35-3.31,3.3-5.72,6.61-5.38,.49,.05,12.09,1.3,24.5,8.49,11.59,6.71,26.16,20.03,29.73,45.32,.27,1.9-.38,3.71-1.6,5Z"></path>
  <path fill="url(#c)" d="M254.5,126.93c-1.32,1.39-3.09,2.36-5.13,2.64-4.79,.68-9.22-2.66-9.9-7.45-7.96-56.42-60.83-62.78-63.07-63.02-4.8-.52-8.29-4.82-7.78-9.62,.5-4.8,4.78-8.29,9.58-7.8,.71,.07,17.53,1.88,35.52,12.31,16.81,9.73,37.93,29.03,43.1,65.7,.39,2.75-.55,5.38-2.32,7.25Z"></path>
</svg>
